<?xml version="1.0" encoding="utf-8"?>
<!-- Generator: Adobe Illustrator 24.1.2, SVG Export Plug-In . SVG Version: 6.00 Build 0)  -->
<svg version="1.1" id="Warstwa_3" xmlns="http://www.w3.org/2000/svg" xmlns:xlink="http://www.w3.org/1999/xlink" x="0px" y="0px"
	 viewBox="0 0 430 430" style="enable-background:new 0 0 430 430;" xml:space="preserve">
<style type="text/css">
	.st0{fill:#08a88a;}
	.st1{fill:#121331;}
	.st2{fill:#08a88a;}
	.st3{fill:none;}
</style>
<g>
	<path class="st0" d="M286.41,296.25c-2.35,0-4.58-1.39-5.54-3.7c-1.27-3.06,0.17-6.57,3.23-7.84
		c26.16-10.89,43.07-36.24,43.07-64.58c0-38.56-31.37-69.93-69.93-69.93c-26.17,0-49.94,14.42-62.03,37.63
		c-1.53,2.94-5.16,4.08-8.09,2.55c-2.94-1.53-4.08-5.15-2.55-8.09c14.16-27.19,42.01-44.09,72.67-44.09
		c45.18,0,81.93,36.75,81.93,81.93c0,33.2-19.8,62.9-50.45,75.66C287.96,296.1,287.18,296.25,286.41,296.25z"/>
	<path class="st0" d="M257.24,118.88c-3.31,0-6-2.69-6-6V78.95c0-3.31,2.69-6,6-6s6,2.69,6,6v33.94
		C263.24,116.19,260.55,118.88,257.24,118.88z"/>
	<path class="st0" d="M181.4,150.29c-1.54,0-3.07-0.59-4.24-1.76l-24-24c-2.34-2.34-2.34-6.14,0-8.49c2.34-2.34,6.14-2.34,8.49,0
		l24,24c2.34,2.34,2.34,6.14,0,8.49C184.48,149.71,182.94,150.29,181.4,150.29z"/>
	<path class="st0" d="M357.07,325.96c-1.54,0-3.07-0.59-4.24-1.76l-24-24c-2.34-2.34-2.34-6.14,0-8.49c2.34-2.34,6.14-2.34,8.49,0
		l24,24c2.34,2.34,2.34,6.14,0,8.49C360.15,325.38,358.61,325.96,357.07,325.96z"/>
	<path class="st0" d="M398.43,226.13h-33.94c-3.31,0-6-2.69-6-6s2.69-6,6-6h33.94c3.31,0,6,2.69,6,6S401.74,226.13,398.43,226.13z"
		/>
	<path class="st0" d="M333.08,150.29c-1.54,0-3.07-0.59-4.24-1.76c-2.34-2.34-2.34-6.14,0-8.49l24-24c2.34-2.34,6.14-2.34,8.49,0
		c2.34,2.34,2.34,6.14,0,8.49l-24,24C336.15,149.71,334.61,150.29,333.08,150.29z"/>
	<path class="st1" d="M251.73,229.11c-15.8-32.35-48.89-53.12-85-53.12c-32.47,0-62.89,16.98-80.39,44.56
		c-8.86-0.8-17.79,2.19-24.58,8.41c-7.14,6.53-11.03,15.69-10.84,25.11c-15.73,10.32-25.35,27.95-25.35,46.91
		c0,30.92,25.16,56.08,56.08,56.08h144.17c36.72,0,66.59-29.87,66.59-66.59C292.41,263.79,276.16,239.44,251.73,229.11z
		 M225.82,345.05H81.65c-24.3,0-44.08-19.77-44.08-44.08c0-15.94,8.64-30.68,22.56-38.47c2.17-1.22,3.36-3.65,3-6.11
		c-1.01-6.86,1.51-13.81,6.73-18.59c5.07-4.64,11.67-6.41,18.13-4.88c6.13,1.46,11.5,5.37,14.72,10.74
		c2.82,4.69,3.65,10.06,2.33,15.12c-0.83,3.21,1.09,6.48,4.3,7.32c3.21,0.84,6.48-1.09,7.32-4.3c2.14-8.21,0.84-16.85-3.66-24.32
		c-3.47-5.78-8.59-10.43-14.58-13.43c15.55-22.41,41.12-36.07,68.31-36.07c32.24,0,61.74,18.96,75.14,48.31
		c6.9,15.1,9.07,32.49,6.12,48.95c-0.59,3.26,1.58,6.38,4.85,6.97c0.36,0.06,0.72,0.1,1.07,0.1c2.85,0,5.38-2.04,5.9-4.94
		c2.43-13.53,1.81-27.6-1.64-40.86c13.7,10.14,22.25,26.44,22.25,43.96C280.41,320.56,255.92,345.05,225.82,345.05z"/>
</g>
</svg>
