<?xml version="1.0" encoding="UTF-8"?>
<svg xmlns="http://www.w3.org/2000/svg" xmlns:xlink="http://www.w3.org/1999/xlink" width="810pt" height="809.999993pt" viewBox="0 0 810 809.999993" version="1.2">
<defs>
<clipPath id="clip1">
  <path d="M 104 19.570312 L 705 19.570312 L 705 790.570312 L 104 790.570312 Z M 104 19.570312 "/>
</clipPath>
<clipPath id="clip2">
  <path d="M 255.460938 145.3125 L 554.710938 145.3125 L 554.710938 444.5625 L 255.460938 444.5625 Z M 255.460938 145.3125 "/>
</clipPath>
</defs>
<g id="surface1">
<path style=" stroke:none;fill-rule:nonzero;fill:rgb(31.759644%,81.17981%,52.938843%);fill-opacity:1;" d="M 404.894531 785.820312 C 403.84375 785.820312 402.804688 785.476562 401.933594 784.789062 C 401.207031 784.203125 328.097656 725.605469 256.003906 639.605469 C 189.234375 559.960938 109.636719 439.804688 109.636719 319.632812 C 109.636719 156.804688 242.089844 24.320312 404.894531 24.320312 C 567.699219 24.320312 700.140625 156.804688 700.140625 319.632812 C 700.140625 444.820312 620.542969 564.722656 553.765625 643.265625 C 481.640625 728.082031 408.515625 784.289062 407.78125 784.84375 C 406.925781 785.496094 405.914062 785.820312 404.894531 785.820312 "/>
<g clip-path="url(#clip1)" clip-rule="nonzero">
<path style=" stroke:none;fill-rule:nonzero;fill:rgb(0%,50.19989%,21.569824%);fill-opacity:1;" d="M 404.894531 19.566406 C 324.765625 19.566406 249.421875 50.78125 192.75 107.457031 C 136.089844 164.136719 104.882812 239.496094 104.882812 319.632812 C 104.882812 373.566406 120.496094 431.886719 151.296875 492.984375 C 175.71875 541.445312 209.71875 591.804688 252.355469 642.660156 C 324.765625 729.019531 398.238281 787.917969 398.972656 788.503906 C 400.707031 789.886719 402.804688 790.574219 404.894531 790.574219 C 406.925781 790.574219 408.960938 789.921875 410.667969 788.625 C 411.402344 788.066406 484.9375 731.546875 557.386719 646.335938 C 600.046875 596.167969 634.070312 545.941406 658.5 497.050781 C 689.289062 435.453125 704.894531 375.765625 704.894531 319.632812 C 704.894531 239.496094 673.695312 164.136719 617.027344 107.457031 C 560.367188 50.78125 485.03125 19.566406 404.894531 19.566406 Z M 404.894531 29.074219 C 565.332031 29.074219 695.390625 159.179688 695.390625 319.632812 C 695.390625 559.179688 404.894531 781.066406 404.894531 781.066406 C 404.894531 781.066406 114.386719 549.496094 114.386719 319.632812 C 114.386719 159.179688 244.453125 29.074219 404.894531 29.074219 "/>
</g>
<path style=" stroke:none;fill-rule:nonzero;fill:rgb(100%,100%,100%);fill-opacity:1;" d="M 404.894531 535.21875 C 284.917969 535.21875 187.3125 437.585938 187.3125 317.59375 C 187.3125 197.585938 284.917969 99.964844 404.894531 99.964844 C 524.871094 99.964844 622.476562 197.585938 622.476562 317.59375 C 622.476562 437.585938 524.871094 535.21875 404.894531 535.21875 "/>
<path style=" stroke:none;fill-rule:nonzero;fill:rgb(0%,50.19989%,21.569824%);fill-opacity:1;" d="M 404.894531 95.214844 C 282.300781 95.214844 182.558594 194.96875 182.558594 317.59375 C 182.558594 440.207031 282.300781 539.972656 404.894531 539.972656 C 527.488281 539.972656 627.226562 440.207031 627.226562 317.59375 C 627.226562 194.96875 527.488281 95.214844 404.894531 95.214844 Z M 404.894531 104.71875 C 522.4375 104.71875 617.722656 200.039062 617.722656 317.59375 C 617.722656 435.164062 522.4375 530.464844 404.894531 530.464844 C 287.359375 530.464844 192.066406 435.164062 192.066406 317.59375 C 192.066406 200.039062 287.359375 104.71875 404.894531 104.71875 "/>
<g clip-path="url(#clip2)" clip-rule="nonzero">
<path style=" stroke:none;fill-rule:nonzero;fill:rgb(31.759644%,81.17981%,52.938843%);fill-opacity:1;" d="M 390.121094 175.238281 L 390.121094 160.273438 C 390.121094 159.292969 390.21875 158.320312 390.410156 157.355469 C 390.601562 156.390625 390.886719 155.457031 391.261719 154.546875 C 391.636719 153.640625 392.097656 152.777344 392.644531 151.960938 C 393.191406 151.144531 393.808594 150.390625 394.503906 149.695312 C 395.199219 149 395.957031 148.378906 396.773438 147.832031 C 397.589844 147.289062 398.453125 146.828125 399.359375 146.449219 C 400.265625 146.074219 401.203125 145.792969 402.164062 145.601562 C 403.128906 145.40625 404.101562 145.3125 405.085938 145.3125 C 406.066406 145.3125 407.039062 145.40625 408.003906 145.601562 C 408.96875 145.792969 409.902344 146.074219 410.8125 146.449219 C 411.71875 146.828125 412.582031 147.289062 413.398438 147.832031 C 414.214844 148.378906 414.96875 149 415.664062 149.695312 C 416.359375 150.390625 416.980469 151.144531 417.527344 151.960938 C 418.070312 152.777344 418.53125 153.640625 418.910156 154.546875 C 419.285156 155.457031 419.566406 156.390625 419.761719 157.355469 C 419.953125 158.320312 420.046875 159.292969 420.046875 160.273438 L 420.046875 175.238281 C 420.046875 176.21875 419.953125 177.191406 419.761719 178.15625 C 419.566406 179.121094 419.285156 180.054688 418.910156 180.964844 C 418.53125 181.871094 418.070312 182.734375 417.527344 183.550781 C 416.980469 184.367188 416.359375 185.121094 415.664062 185.816406 C 414.96875 186.511719 414.214844 187.132812 413.398438 187.679688 C 412.582031 188.222656 411.71875 188.683594 410.8125 189.0625 C 409.902344 189.4375 408.96875 189.71875 408.003906 189.914062 C 407.039062 190.105469 406.066406 190.199219 405.085938 190.199219 C 404.101562 190.199219 403.128906 190.105469 402.164062 189.914062 C 401.203125 189.71875 400.265625 189.4375 399.359375 189.0625 C 398.453125 188.683594 397.589844 188.222656 396.773438 187.679688 C 395.957031 187.132812 395.199219 186.511719 394.503906 185.816406 C 393.808594 185.121094 393.191406 184.367188 392.644531 183.550781 C 392.097656 182.734375 391.636719 181.871094 391.261719 180.964844 C 390.886719 180.054688 390.601562 179.121094 390.410156 178.15625 C 390.21875 177.191406 390.121094 176.21875 390.121094 175.238281 Z M 309.863281 220.871094 C 310.5625 221.546875 311.320312 222.148438 312.136719 222.675781 C 312.953125 223.203125 313.8125 223.648438 314.714844 224.007812 C 315.617188 224.367188 316.542969 224.636719 317.5 224.816406 C 318.453125 224.996094 319.417969 225.082031 320.386719 225.074219 C 321.359375 225.0625 322.320312 224.960938 323.273438 224.765625 C 324.222656 224.570312 325.148438 224.285156 326.042969 223.910156 C 326.941406 223.535156 327.792969 223.074219 328.597656 222.535156 C 329.40625 221.992188 330.152344 221.378906 330.839844 220.691406 C 331.523438 220.003906 332.140625 219.257812 332.679688 218.449219 C 333.222656 217.644531 333.679688 216.792969 334.058594 215.894531 C 334.433594 215 334.71875 214.078125 334.914062 213.125 C 335.109375 212.171875 335.210938 211.210938 335.21875 210.242188 C 335.230469 209.269531 335.144531 208.304688 334.964844 207.351562 C 334.785156 206.394531 334.515625 205.46875 334.15625 204.566406 C 333.796875 203.664062 333.351562 202.804688 332.824219 201.988281 C 332.296875 201.171875 331.695312 200.414062 331.019531 199.714844 L 320.441406 189.136719 C 319.742188 188.460938 318.984375 187.859375 318.171875 187.332031 C 317.355469 186.804688 316.496094 186.363281 315.59375 186.003906 C 314.691406 185.644531 313.761719 185.371094 312.808594 185.195312 C 311.851562 185.015625 310.890625 184.929688 309.917969 184.9375 C 308.945312 184.945312 307.984375 185.046875 307.03125 185.242188 C 306.082031 185.441406 305.15625 185.726562 304.261719 186.101562 C 303.367188 186.476562 302.515625 186.933594 301.707031 187.476562 C 300.902344 188.019531 300.15625 188.632812 299.46875 189.320312 C 298.78125 190.007812 298.167969 190.753906 297.625 191.558594 C 297.082031 192.367188 296.625 193.21875 296.25 194.113281 C 295.875 195.007812 295.585938 195.933594 295.390625 196.886719 C 295.195312 197.835938 295.09375 198.796875 295.085938 199.769531 C 295.078125 200.742188 295.164062 201.703125 295.339844 202.660156 C 295.519531 203.613281 295.789062 204.542969 296.152344 205.445312 C 296.511719 206.347656 296.953125 207.207031 297.480469 208.023438 C 298.007812 208.839844 298.609375 209.59375 299.285156 210.292969 Z M 509.824219 294.9375 C 509.824219 295.917969 509.917969 296.894531 510.109375 297.855469 C 510.300781 298.820312 510.585938 299.753906 510.960938 300.664062 C 511.335938 301.570312 511.796875 302.433594 512.34375 303.25 C 512.890625 304.066406 513.511719 304.824219 514.203125 305.515625 C 514.898438 306.210938 515.65625 306.832031 516.472656 307.378906 C 517.289062 307.925781 518.152344 308.382812 519.058594 308.761719 C 519.964844 309.136719 520.902344 309.421875 521.867188 309.613281 C 522.828125 309.804688 523.800781 309.898438 524.785156 309.898438 L 539.746094 309.898438 C 540.730469 309.898438 541.703125 309.804688 542.667969 309.613281 C 543.628906 309.421875 544.566406 309.136719 545.472656 308.761719 C 546.382812 308.382812 547.242188 307.925781 548.058594 307.378906 C 548.878906 306.832031 549.632812 306.210938 550.328125 305.515625 C 551.023438 304.824219 551.640625 304.066406 552.1875 303.25 C 552.734375 302.433594 553.195312 301.570312 553.570312 300.664062 C 553.945312 299.753906 554.230469 298.820312 554.421875 297.855469 C 554.613281 296.894531 554.710938 295.917969 554.710938 294.9375 C 554.710938 293.953125 554.613281 292.980469 554.421875 292.019531 C 554.230469 291.054688 553.945312 290.117188 553.570312 289.210938 C 553.195312 288.304688 552.734375 287.441406 552.1875 286.625 C 551.640625 285.808594 551.023438 285.050781 550.328125 284.355469 C 549.632812 283.664062 548.878906 283.042969 548.058594 282.496094 C 547.242188 281.949219 546.382812 281.488281 545.472656 281.113281 C 544.566406 280.738281 543.628906 280.453125 542.667969 280.261719 C 541.703125 280.070312 540.730469 279.976562 539.746094 279.976562 L 524.785156 279.976562 C 523.800781 279.976562 522.828125 280.070312 521.867188 280.261719 C 520.902344 280.453125 519.96875 280.738281 519.058594 281.113281 C 518.152344 281.488281 517.289062 281.949219 516.472656 282.496094 C 515.65625 283.042969 514.898438 283.664062 514.203125 284.355469 C 513.511719 285.050781 512.890625 285.808594 512.34375 286.625 C 511.796875 287.441406 511.335938 288.304688 510.960938 289.210938 C 510.585938 290.117188 510.300781 291.054688 510.109375 292.019531 C 509.917969 292.980469 509.824219 293.953125 509.824219 294.9375 Z M 500.304688 220.871094 L 510.886719 210.292969 C 511.597656 209.605469 512.238281 208.851562 512.804688 208.03125 C 513.367188 207.214844 513.847656 206.351562 514.238281 205.4375 C 514.628906 204.523438 514.929688 203.582031 515.132812 202.609375 C 515.335938 201.636719 515.445312 200.65625 515.453125 199.660156 C 515.460938 198.667969 515.371094 197.683594 515.183594 196.707031 C 514.996094 195.734375 514.714844 194.785156 514.339844 193.867188 C 513.960938 192.945312 513.5 192.074219 512.949219 191.246094 C 512.398438 190.417969 511.773438 189.652344 511.070312 188.953125 C 510.367188 188.25 509.601562 187.625 508.777344 187.074219 C 507.949219 186.523438 507.074219 186.058594 506.15625 185.683594 C 505.238281 185.308594 504.289062 185.027344 503.3125 184.839844 C 502.339844 184.652344 501.355469 184.5625 500.359375 184.570312 C 499.367188 184.578125 498.382812 184.683594 497.410156 184.890625 C 496.441406 185.09375 495.496094 185.390625 494.585938 185.785156 C 493.671875 186.175781 492.808594 186.65625 491.988281 187.21875 C 491.171875 187.785156 490.417969 188.421875 489.726562 189.136719 L 479.148438 199.714844 C 478.472656 200.414062 477.875 201.171875 477.347656 201.988281 C 476.820312 202.804688 476.375 203.664062 476.015625 204.566406 C 475.65625 205.46875 475.386719 206.394531 475.207031 207.351562 C 475.027344 208.304688 474.941406 209.269531 474.949219 210.242188 C 474.957031 211.210938 475.0625 212.171875 475.257812 213.125 C 475.453125 214.078125 475.738281 215 476.113281 215.894531 C 476.488281 216.792969 476.949219 217.644531 477.488281 218.449219 C 478.03125 219.257812 478.644531 220.003906 479.332031 220.691406 C 480.019531 221.378906 480.765625 221.992188 481.570312 222.53125 C 482.378906 223.074219 483.230469 223.53125 484.125 223.910156 C 485.023438 224.285156 485.945312 224.570312 486.898438 224.765625 C 487.847656 224.960938 488.808594 225.0625 489.78125 225.070312 C 490.753906 225.082031 491.714844 224.996094 492.671875 224.816406 C 493.625 224.636719 494.554688 224.367188 495.457031 224.007812 C 496.359375 223.648438 497.21875 223.203125 498.035156 222.675781 C 498.851562 222.148438 499.609375 221.546875 500.304688 220.871094 Z M 554.710938 384.710938 C 554.710938 386.671875 554.613281 388.628906 554.421875 390.578125 C 554.230469 392.527344 553.941406 394.464844 553.558594 396.386719 C 553.175781 398.3125 552.703125 400.210938 552.132812 402.085938 C 551.5625 403.960938 550.90625 405.804688 550.152344 407.617188 C 549.402344 409.425781 548.566406 411.195312 547.644531 412.925781 C 546.71875 414.652344 545.710938 416.332031 544.625 417.964844 C 543.535156 419.59375 542.367188 421.164062 541.125 422.679688 C 539.882812 424.195312 538.566406 425.644531 537.179688 427.03125 C 535.792969 428.417969 534.34375 429.734375 532.828125 430.976562 C 531.3125 432.21875 529.742188 433.386719 528.109375 434.476562 C 526.480469 435.566406 524.800781 436.570312 523.074219 437.496094 C 521.34375 438.417969 519.574219 439.257812 517.761719 440.007812 C 515.953125 440.757812 514.109375 441.417969 512.234375 441.984375 C 510.359375 442.554688 508.457031 443.03125 506.535156 443.414062 C 504.613281 443.792969 502.675781 444.082031 500.726562 444.273438 C 498.777344 444.464844 496.820312 444.5625 494.859375 444.5625 L 356.144531 444.5625 C 354.496094 444.5625 352.847656 444.523438 351.203125 444.441406 C 349.558594 444.359375 347.914062 444.238281 346.273438 444.078125 C 344.632812 443.914062 343 443.714844 341.371094 443.472656 C 339.738281 443.230469 338.117188 442.949219 336.5 442.628906 C 334.882812 442.304688 333.277344 441.945312 331.679688 441.542969 C 330.082031 441.144531 328.492188 440.707031 326.917969 440.226562 C 325.339844 439.75 323.773438 439.230469 322.222656 438.675781 C 320.671875 438.121094 319.136719 437.527344 317.613281 436.898438 C 316.089844 436.269531 314.585938 435.601562 313.09375 434.894531 C 311.605469 434.191406 310.132812 433.449219 308.679688 432.671875 C 307.226562 431.898438 305.792969 431.085938 304.382812 430.238281 C 302.96875 429.390625 301.578125 428.507812 300.207031 427.59375 C 298.835938 426.679688 297.488281 425.730469 296.167969 424.75 C 294.84375 423.765625 293.542969 422.753906 292.269531 421.707031 C 290.996094 420.664062 289.75 419.585938 288.527344 418.480469 C 287.308594 417.375 286.113281 416.238281 284.949219 415.074219 C 283.785156 413.90625 282.648438 412.714844 281.542969 411.492188 C 280.433594 410.273438 279.359375 409.027344 278.3125 407.75 C 277.269531 406.476562 276.253906 405.179688 275.273438 403.855469 C 274.292969 402.53125 273.34375 401.1875 272.429688 399.816406 C 271.511719 398.445312 270.632812 397.054688 269.785156 395.640625 C 268.9375 394.226562 268.125 392.792969 267.347656 391.339844 C 266.570312 389.886719 265.832031 388.417969 265.125 386.925781 C 264.421875 385.4375 263.753906 383.929688 263.125 382.410156 C 262.492188 380.886719 261.902344 379.351562 261.34375 377.796875 C 260.789062 376.246094 260.273438 374.683594 259.796875 373.105469 C 259.316406 371.53125 258.878906 369.941406 258.476562 368.34375 C 258.078125 366.746094 257.714844 365.136719 257.394531 363.523438 C 257.074219 361.90625 256.792969 360.28125 256.550781 358.652344 C 256.308594 357.023438 256.105469 355.386719 255.945312 353.75 C 255.785156 352.109375 255.664062 350.464844 255.582031 348.820312 C 255.5 347.175781 255.460938 345.527344 255.460938 343.878906 C 255.433594 341.273438 255.519531 338.671875 255.710938 336.070312 C 255.902344 333.472656 256.203125 330.886719 256.613281 328.3125 C 257.023438 325.738281 257.539062 323.1875 258.160156 320.65625 C 258.78125 318.125 259.507812 315.625 260.339844 313.15625 C 261.167969 310.683594 262.101562 308.253906 263.136719 305.859375 C 264.167969 303.46875 265.300781 301.125 266.53125 298.824219 C 267.761719 296.527344 269.085938 294.285156 270.503906 292.097656 C 271.917969 289.910156 273.425781 287.789062 275.019531 285.726562 C 276.613281 283.664062 278.292969 281.675781 280.054688 279.753906 C 281.816406 277.832031 283.652344 275.988281 285.566406 274.21875 C 287.484375 272.453125 289.46875 270.769531 291.523438 269.167969 C 293.582031 267.566406 295.699219 266.050781 297.882812 264.628906 C 300.0625 263.203125 302.300781 261.871094 304.59375 260.632812 C 306.890625 259.398438 309.230469 258.257812 311.617188 257.214844 C 314.007812 256.171875 316.4375 255.234375 318.902344 254.394531 C 321.371094 253.554688 323.867188 252.820312 326.398438 252.1875 C 327.574219 250.011719 328.835938 247.886719 330.1875 245.816406 C 331.539062 243.742188 332.972656 241.730469 334.488281 239.777344 C 336.007812 237.824219 337.605469 235.9375 339.277344 234.117188 C 340.953125 232.296875 342.699219 230.546875 344.515625 228.871094 C 346.335938 227.195312 348.222656 225.59375 350.171875 224.074219 C 352.125 222.554688 354.132812 221.117188 356.203125 219.761719 C 358.273438 218.410156 360.398438 217.144531 362.574219 215.964844 C 364.746094 214.789062 366.96875 213.699219 369.234375 212.707031 C 371.496094 211.710938 373.800781 210.8125 376.140625 210.011719 C 378.480469 209.207031 380.847656 208.5 383.246094 207.894531 C 385.644531 207.285156 388.0625 206.777344 390.503906 206.371094 C 392.941406 205.964844 395.394531 205.660156 397.859375 205.457031 C 400.324219 205.25 402.792969 205.148438 405.269531 205.148438 C 407.742188 205.152344 410.210938 205.253906 412.675781 205.457031 C 415.140625 205.664062 417.59375 205.96875 420.035156 206.378906 C 422.472656 206.785156 424.890625 207.292969 427.289062 207.902344 C 429.6875 208.511719 432.054688 209.21875 434.394531 210.023438 C 436.734375 210.828125 439.035156 211.726562 441.300781 212.722656 C 443.566406 213.71875 445.785156 214.804688 447.960938 215.984375 C 450.132812 217.164062 452.257812 218.429688 454.328125 219.785156 C 456.394531 221.136719 458.40625 222.578125 460.355469 224.097656 C 462.308594 225.617188 464.191406 227.21875 466.011719 228.894531 C 467.828125 230.574219 469.574219 232.320312 471.246094 234.144531 C 472.921875 235.964844 474.515625 237.855469 476.03125 239.808594 C 477.550781 241.761719 478.984375 243.773438 480.332031 245.847656 C 481.683594 247.921875 482.945312 250.046875 484.121094 252.222656 C 485.292969 254.398438 486.375 256.621094 487.367188 258.886719 C 488.355469 261.15625 489.25 263.457031 490.050781 265.800781 C 490.851562 268.140625 491.550781 270.511719 492.15625 272.910156 C 492.757812 275.308594 493.261719 277.726562 493.664062 280.167969 C 494.066406 282.609375 494.367188 285.0625 494.566406 287.527344 C 494.765625 289.992188 494.863281 292.464844 494.859375 294.9375 C 494.828125 300.425781 494.28125 305.859375 493.230469 311.246094 C 495.363281 311.628906 497.476562 312.105469 499.566406 312.671875 C 501.660156 313.242188 503.722656 313.898438 505.757812 314.644531 C 507.792969 315.394531 509.792969 316.226562 511.753906 317.148438 C 513.71875 318.070312 515.636719 319.074219 517.511719 320.164062 C 519.386719 321.253906 521.210938 322.421875 522.980469 323.667969 C 524.753906 324.914062 526.472656 326.238281 528.128906 327.632812 C 529.789062 329.03125 531.382812 330.496094 532.910156 332.03125 C 534.441406 333.566406 535.902344 335.164062 537.292969 336.828125 C 538.6875 338.492188 540.003906 340.210938 541.242188 341.988281 C 542.484375 343.765625 543.648438 345.59375 544.730469 347.46875 C 545.8125 349.347656 546.8125 351.269531 547.726562 353.234375 C 548.640625 355.199219 549.46875 357.203125 550.210938 359.238281 C 550.953125 361.277344 551.601562 363.34375 552.164062 365.4375 C 552.726562 367.53125 553.195312 369.644531 553.570312 371.78125 C 553.949219 373.914062 554.230469 376.0625 554.421875 378.222656 C 554.613281 380.378906 554.707031 382.542969 554.710938 384.710938 Z M 464.933594 294.9375 C 464.941406 293.476562 464.894531 292.015625 464.792969 290.558594 C 464.691406 289.101562 464.539062 287.648438 464.332031 286.203125 C 464.121094 284.753906 463.863281 283.316406 463.546875 281.890625 C 463.234375 280.460938 462.871094 279.050781 462.453125 277.648438 C 462.035156 276.246094 461.566406 274.863281 461.046875 273.5 C 460.527344 272.132812 459.957031 270.789062 459.339844 269.464844 C 458.722656 268.140625 458.054688 266.839844 457.339844 265.5625 C 456.628906 264.289062 455.867188 263.042969 455.0625 261.824219 C 454.257812 260.601562 453.40625 259.414062 452.515625 258.257812 C 451.621094 257.101562 450.6875 255.980469 449.710938 254.890625 C 448.734375 253.804688 447.71875 252.753906 446.667969 251.738281 C 445.613281 250.726562 444.523438 249.753906 443.402344 248.820312 C 442.277344 247.886719 441.117188 246.996094 439.929688 246.148438 C 438.738281 245.300781 437.519531 244.496094 436.269531 243.738281 C 435.019531 242.980469 433.742188 242.269531 432.441406 241.605469 C 431.140625 240.941406 429.816406 240.324219 428.46875 239.757812 C 427.121094 239.191406 425.757812 238.671875 424.371094 238.207031 C 422.988281 237.742188 421.585938 237.324219 420.171875 236.960938 C 418.753906 236.597656 417.328125 236.289062 415.890625 236.027344 C 414.453125 235.769531 413.003906 235.566406 411.550781 235.414062 C 410.097656 235.261719 408.640625 235.164062 407.179688 235.117188 C 405.71875 235.074219 404.257812 235.082031 402.800781 235.144531 C 401.339844 235.207031 399.882812 235.324219 398.433594 235.492188 C 396.980469 235.664062 395.535156 235.886719 394.101562 236.164062 C 392.667969 236.4375 391.242188 236.765625 389.832031 237.148438 C 388.421875 237.527344 387.027344 237.960938 385.648438 238.445312 C 384.269531 238.925781 382.910156 239.460938 381.570312 240.042969 C 380.230469 240.628906 378.910156 241.261719 377.617188 241.941406 C 376.324219 242.621094 375.058594 243.347656 373.820312 244.121094 C 372.578125 244.894531 371.367188 245.710938 370.1875 246.574219 C 369.007812 247.4375 367.863281 248.34375 366.75 249.289062 C 365.636719 250.238281 364.558594 251.222656 363.519531 252.25 C 365.527344 252.671875 367.519531 253.160156 369.496094 253.71875 C 371.472656 254.277344 373.425781 254.90625 375.355469 255.597656 C 377.289062 256.292969 379.195312 257.050781 381.074219 257.875 C 382.953125 258.699219 384.804688 259.589844 386.621094 260.542969 C 388.441406 261.492188 390.226562 262.507812 391.972656 263.582031 C 393.722656 264.660156 395.433594 265.792969 397.101562 266.984375 C 398.773438 268.179688 400.398438 269.429688 401.984375 270.734375 C 403.570312 272.039062 405.105469 273.398438 406.597656 274.808594 C 408.089844 276.21875 409.527344 277.679688 410.917969 279.191406 C 412.308594 280.703125 413.644531 282.257812 414.925781 283.859375 C 416.210938 285.464844 417.4375 287.109375 418.605469 288.796875 C 419.773438 290.484375 420.886719 292.210938 421.933594 293.972656 C 422.984375 295.738281 423.972656 297.535156 424.902344 299.367188 C 425.828125 301.199219 426.6875 303.058594 427.488281 304.949219 C 428.285156 306.84375 429.019531 308.757812 429.683594 310.699219 C 430.351562 312.640625 430.949219 314.605469 431.480469 316.589844 C 441.53125 312.382812 452.007812 310.144531 462.898438 309.871094 C 464.238281 304.980469 464.917969 300.003906 464.933594 294.9375 Z M 464.933594 294.9375 "/>
</g>
</g>
</svg>
