<?xml version="1.0" encoding="UTF-8"?>
<svg xmlns="http://www.w3.org/2000/svg" xmlns:xlink="http://www.w3.org/1999/xlink" width="810pt" height="809.999993pt" viewBox="0 0 810 809.999993" version="1.2">
<defs>
<clipPath id="clip1">
  <path d="M 104 19.570312 L 705 19.570312 L 705 790.570312 L 104 790.570312 Z M 104 19.570312 "/>
</clipPath>
<clipPath id="clip2">
  <path d="M 218.378906 132.210938 L 591.878906 132.210938 L 591.878906 505.710938 L 218.378906 505.710938 Z M 218.378906 132.210938 "/>
</clipPath>
<clipPath id="clip3">
  <path d="M 218.378906 298 L 591.878906 298 L 591.878906 465 L 218.378906 465 Z M 218.378906 298 "/>
</clipPath>
</defs>
<g id="surface1">
<path style=" stroke:none;fill-rule:nonzero;fill:rgb(100%,34.118652%,34.118652%);fill-opacity:1;" d="M 404.894531 785.820312 C 403.84375 785.820312 402.804688 785.476562 401.933594 784.789062 C 401.207031 784.203125 328.097656 725.605469 256.003906 639.605469 C 189.234375 559.960938 109.636719 439.804688 109.636719 319.632812 C 109.636719 156.804688 242.089844 24.320312 404.894531 24.320312 C 567.699219 24.320312 700.140625 156.804688 700.140625 319.632812 C 700.140625 444.820312 620.542969 564.722656 553.765625 643.265625 C 481.640625 728.082031 408.515625 784.289062 407.78125 784.84375 C 406.925781 785.496094 405.914062 785.820312 404.894531 785.820312 "/>
<g clip-path="url(#clip1)" clip-rule="nonzero">
<path style=" stroke:none;fill-rule:nonzero;fill:rgb(100%,8.628845%,8.628845%);fill-opacity:1;" d="M 404.894531 19.566406 C 324.765625 19.566406 249.421875 50.78125 192.75 107.457031 C 136.089844 164.136719 104.882812 239.496094 104.882812 319.632812 C 104.882812 373.566406 120.496094 431.886719 151.296875 492.984375 C 175.71875 541.445312 209.71875 591.804688 252.355469 642.660156 C 324.765625 729.019531 398.238281 787.917969 398.972656 788.503906 C 400.707031 789.886719 402.804688 790.574219 404.894531 790.574219 C 406.925781 790.574219 408.960938 789.921875 410.667969 788.625 C 411.402344 788.066406 484.9375 731.546875 557.386719 646.335938 C 600.046875 596.167969 634.070312 545.941406 658.5 497.050781 C 689.289062 435.453125 704.894531 375.765625 704.894531 319.632812 C 704.894531 239.496094 673.695312 164.136719 617.027344 107.457031 C 560.367188 50.78125 485.03125 19.566406 404.894531 19.566406 Z M 404.894531 29.074219 C 565.332031 29.074219 695.390625 159.179688 695.390625 319.632812 C 695.390625 559.179688 404.894531 781.066406 404.894531 781.066406 C 404.894531 781.066406 114.386719 549.496094 114.386719 319.632812 C 114.386719 159.179688 244.453125 29.074219 404.894531 29.074219 "/>
</g>
<path style=" stroke:none;fill-rule:nonzero;fill:rgb(100%,100%,100%);fill-opacity:1;" d="M 404.894531 535.21875 C 284.917969 535.21875 187.3125 437.585938 187.3125 317.59375 C 187.3125 197.585938 284.917969 99.964844 404.894531 99.964844 C 524.871094 99.964844 622.476562 197.585938 622.476562 317.59375 C 622.476562 437.585938 524.871094 535.21875 404.894531 535.21875 "/>
<path style=" stroke:none;fill-rule:nonzero;fill:rgb(100%,8.628845%,8.628845%);fill-opacity:1;" d="M 404.894531 95.214844 C 282.300781 95.214844 182.558594 194.96875 182.558594 317.59375 C 182.558594 440.207031 282.300781 539.972656 404.894531 539.972656 C 527.488281 539.972656 627.226562 440.207031 627.226562 317.59375 C 627.226562 194.96875 527.488281 95.214844 404.894531 95.214844 Z M 404.894531 104.71875 C 522.4375 104.71875 617.722656 200.039062 617.722656 317.59375 C 617.722656 435.164062 522.4375 530.464844 404.894531 530.464844 C 287.359375 530.464844 192.066406 435.164062 192.066406 317.59375 C 192.066406 200.039062 287.359375 104.71875 404.894531 104.71875 "/>
<g clip-path="url(#clip2)" clip-rule="nonzero">
<path style=" stroke:none;fill-rule:nonzero;fill:rgb(100%,34.118652%,34.118652%);fill-opacity:1;" d="M 591.878906 318.960938 C 591.878906 422.097656 508.269531 505.710938 405.128906 505.710938 C 302.003906 505.710938 218.378906 422.097656 218.378906 318.960938 C 218.378906 215.832031 302.003906 132.210938 405.128906 132.210938 C 508.269531 132.210938 591.878906 215.832031 591.878906 318.960938 "/>
</g>
<path style=" stroke:none;fill-rule:nonzero;fill:rgb(100%,100%,100%);fill-opacity:1;" d="M 291.015625 287.835938 C 287.664062 287.835938 284.375 286.214844 282.371094 283.21875 C 279.199219 278.445312 280.484375 272.003906 285.246094 268.828125 C 286.625 267.914062 319.496094 246.335938 363.628906 246.335938 C 369.355469 246.335938 374.003906 250.984375 374.003906 256.710938 C 374.003906 262.4375 369.355469 267.085938 363.628906 267.085938 C 325.710938 267.085938 297.042969 285.90625 296.761719 286.089844 C 294.988281 287.273438 292.988281 287.835938 291.015625 287.835938 Z M 519.246094 287.835938 C 517.285156 287.835938 515.28125 287.273438 513.515625 286.101562 C 513.226562 285.914062 484.269531 267.085938 446.628906 267.085938 C 440.890625 267.085938 436.253906 262.4375 436.253906 256.710938 C 436.253906 250.984375 440.890625 246.335938 446.628906 246.335938 C 490.765625 246.335938 523.632812 267.914062 525.011719 268.828125 C 529.785156 272.003906 531.070312 278.445312 527.886719 283.21875 C 525.894531 286.214844 522.59375 287.835938 519.246094 287.835938 Z M 519.246094 287.835938 "/>
<g clip-path="url(#clip3)" clip-rule="nonzero">
<path style=" stroke:none;fill-rule:nonzero;fill:rgb(100%,100%,100%);fill-opacity:1;" d="M 498.503906 361.402344 L 591.878906 318.960938 C 591.878906 312.113281 591.453125 305.378906 590.75 298.726562 L 498.503906 340.652344 L 498.503906 329.335938 C 498.503906 317.878906 489.207031 308.585938 477.753906 308.585938 L 332.503906 308.585938 C 321.050781 308.585938 311.753906 317.878906 311.753906 329.335938 L 311.753906 340.652344 L 219.519531 298.726562 C 218.804688 305.378906 218.378906 312.113281 218.378906 318.960938 L 311.753906 361.402344 L 311.753906 408.570312 L 234.429688 394.511719 C 237.96875 402.5 242.117188 410.144531 246.703125 417.492188 L 311.753906 429.320312 L 311.753906 443.460938 C 311.753906 454.914062 321.050781 464.210938 332.503906 464.210938 L 477.753906 464.210938 C 489.207031 464.210938 498.503906 454.914062 498.503906 443.460938 L 498.503906 429.320312 L 563.566406 417.480469 C 568.140625 410.136719 572.292969 402.488281 575.828125 394.5 L 498.503906 408.570312 Z M 498.503906 361.402344 "/>
</g>
</g>
</svg>
